<mxfile host="Electron" modified="2024-04-04T12:51:14.637Z" agent="Mozilla/5.0 (Windows NT 10.0; Win64; x64) AppleWebKit/537.36 (KHTML, like Gecko) draw.io/23.1.5 Chrome/120.0.6099.109 Electron/28.1.0 Safari/537.36" etag="sdQvn-bhtyAdF4zea_f6" version="23.1.5" type="device">
  <diagram id="C5RBs43oDa-KdzZeNtuy" name="Page-1">
    <mxGraphModel dx="1925" dy="1989" grid="1" gridSize="10" guides="1" tooltips="1" connect="1" arrows="1" fold="1" page="1" pageScale="1" pageWidth="827" pageHeight="1169" math="0" shadow="0">
      <root>
        <mxCell id="WIyWlLk6GJQsqaUBKTNV-0" />
        <mxCell id="WIyWlLk6GJQsqaUBKTNV-1" parent="WIyWlLk6GJQsqaUBKTNV-0" />
        <mxCell id="zkfFHV4jXpPFQw0GAbJ--0" value="Enemy" style="swimlane;fontStyle=2;align=center;verticalAlign=top;childLayout=stackLayout;horizontal=1;startSize=26;horizontalStack=0;resizeParent=1;resizeLast=0;collapsible=1;marginBottom=0;rounded=0;shadow=0;strokeWidth=1;" parent="WIyWlLk6GJQsqaUBKTNV-1" vertex="1">
          <mxGeometry x="-200" y="-360" width="210" height="328" as="geometry">
            <mxRectangle x="230" y="140" width="160" height="26" as="alternateBounds" />
          </mxGeometry>
        </mxCell>
        <mxCell id="zkfFHV4jXpPFQw0GAbJ--1" value="# _maxHealth: float&#xa;# _health: float&#xa;# _speed: float&#xa;# _dmg: float&#xa;# _money: float&#xa;# _agent: NavMeshAgent" style="text;align=left;verticalAlign=top;spacingLeft=4;spacingRight=4;overflow=hidden;rotatable=0;points=[[0,0.5],[1,0.5]];portConstraint=eastwest;" parent="zkfFHV4jXpPFQw0GAbJ--0" vertex="1">
          <mxGeometry y="26" width="210" height="104" as="geometry" />
        </mxCell>
        <mxCell id="zkfFHV4jXpPFQw0GAbJ--4" value="" style="line;html=1;strokeWidth=1;align=left;verticalAlign=middle;spacingTop=-1;spacingLeft=3;spacingRight=3;rotatable=0;labelPosition=right;points=[];portConstraint=eastwest;" parent="zkfFHV4jXpPFQw0GAbJ--0" vertex="1">
          <mxGeometry y="130" width="210" height="8" as="geometry" />
        </mxCell>
        <mxCell id="5jMMAeLaqf-RPU7la-JJ-0" value="# OnUpdate()&lt;br&gt;# OnAwake()&lt;div&gt;+ SetHealth(pHealth: float)&lt;/div&gt;&lt;div&gt;+ SetSpeed(pSpeed: float)&lt;/div&gt;&lt;div&gt;+ SetMoney(pMoney: float)&lt;/div&gt;&lt;div&gt;+ GetMoney(): float&lt;/div&gt;&lt;div&gt;+ GetSpeed(): float&lt;/div&gt;&lt;div&gt;+ SetDmg(dmg: float)&lt;/div&gt;&lt;div&gt;+ GetDMG(): float&lt;/div&gt;&lt;div&gt;+ Move(destination: Vector3) : bool&lt;/div&gt;&lt;div&gt;+ Die(killed: bool = true)&lt;/div&gt;&lt;div&gt;+ GetWorldLocation(): Vector3&lt;/div&gt;" style="text;html=1;align=left;verticalAlign=middle;resizable=0;points=[];autosize=1;strokeColor=none;fillColor=none;spacingRight=4;spacingLeft=4;" parent="zkfFHV4jXpPFQw0GAbJ--0" vertex="1">
          <mxGeometry y="138" width="210" height="190" as="geometry" />
        </mxCell>
        <mxCell id="dhHFdAmfuzsWMo1l0_3k-3" value="Basic Enemy" style="swimlane;fontStyle=1;align=center;verticalAlign=top;childLayout=stackLayout;horizontal=1;startSize=26;horizontalStack=0;resizeParent=1;resizeParentMax=0;resizeLast=0;collapsible=1;marginBottom=0;whiteSpace=wrap;html=1;" vertex="1" parent="WIyWlLk6GJQsqaUBKTNV-1">
          <mxGeometry x="20" y="30" width="160" height="110" as="geometry" />
        </mxCell>
        <mxCell id="dhHFdAmfuzsWMo1l0_3k-4" value="-_navPoints : Vector3[]&lt;br&gt;-_pointsReached : int = 0&lt;div&gt;&lt;br/&gt;&lt;/div&gt;" style="text;strokeColor=none;fillColor=none;align=left;verticalAlign=top;spacingLeft=4;spacingRight=4;overflow=hidden;rotatable=0;points=[[0,0.5],[1,0.5]];portConstraint=eastwest;whiteSpace=wrap;html=1;" vertex="1" parent="dhHFdAmfuzsWMo1l0_3k-3">
          <mxGeometry y="26" width="160" height="44" as="geometry" />
        </mxCell>
        <mxCell id="dhHFdAmfuzsWMo1l0_3k-5" value="" style="line;strokeWidth=1;fillColor=none;align=left;verticalAlign=middle;spacingTop=-1;spacingLeft=3;spacingRight=3;rotatable=0;labelPosition=right;points=[];portConstraint=eastwest;strokeColor=inherit;" vertex="1" parent="dhHFdAmfuzsWMo1l0_3k-3">
          <mxGeometry y="70" width="160" height="8" as="geometry" />
        </mxCell>
        <mxCell id="dhHFdAmfuzsWMo1l0_3k-6" value="- move()" style="text;strokeColor=none;fillColor=none;align=left;verticalAlign=top;spacingLeft=4;spacingRight=4;overflow=hidden;rotatable=0;points=[[0,0.5],[1,0.5]];portConstraint=eastwest;whiteSpace=wrap;html=1;" vertex="1" parent="dhHFdAmfuzsWMo1l0_3k-3">
          <mxGeometry y="78" width="160" height="32" as="geometry" />
        </mxCell>
        <mxCell id="dhHFdAmfuzsWMo1l0_3k-7" value="&amp;lt;&amp;lt;Interface&amp;gt;&amp;gt; IAttackable" style="swimlane;fontStyle=1;align=center;verticalAlign=top;childLayout=stackLayout;horizontal=1;startSize=26;horizontalStack=0;resizeParent=1;resizeParentMax=0;resizeLast=0;collapsible=1;marginBottom=0;whiteSpace=wrap;html=1;" vertex="1" parent="WIyWlLk6GJQsqaUBKTNV-1">
          <mxGeometry x="224" y="-190" width="190" height="120" as="geometry" />
        </mxCell>
        <mxCell id="dhHFdAmfuzsWMo1l0_3k-8" value="+ onTakeDamage: Action&amp;lt;float&amp;gt;" style="text;strokeColor=none;fillColor=none;align=left;verticalAlign=top;spacingLeft=4;spacingRight=4;overflow=hidden;rotatable=0;points=[[0,0.5],[1,0.5]];portConstraint=eastwest;whiteSpace=wrap;html=1;" vertex="1" parent="dhHFdAmfuzsWMo1l0_3k-7">
          <mxGeometry y="26" width="190" height="26" as="geometry" />
        </mxCell>
        <mxCell id="dhHFdAmfuzsWMo1l0_3k-9" value="" style="line;strokeWidth=1;fillColor=none;align=left;verticalAlign=middle;spacingTop=-1;spacingLeft=3;spacingRight=3;rotatable=0;labelPosition=right;points=[];portConstraint=eastwest;strokeColor=inherit;" vertex="1" parent="dhHFdAmfuzsWMo1l0_3k-7">
          <mxGeometry y="52" width="190" height="8" as="geometry" />
        </mxCell>
        <mxCell id="dhHFdAmfuzsWMo1l0_3k-10" value="+ GetMaxHealth(): float&lt;br&gt;+ GetHealth(): float&lt;br&gt;+ TakeDmg(damage: float)&lt;div&gt;&lt;br/&gt;&lt;/div&gt;" style="text;strokeColor=none;fillColor=none;align=left;verticalAlign=top;spacingLeft=4;spacingRight=4;overflow=hidden;rotatable=0;points=[[0,0.5],[1,0.5]];portConstraint=eastwest;whiteSpace=wrap;html=1;" vertex="1" parent="dhHFdAmfuzsWMo1l0_3k-7">
          <mxGeometry y="60" width="190" height="60" as="geometry" />
        </mxCell>
        <mxCell id="dhHFdAmfuzsWMo1l0_3k-1" value="" style="endArrow=block;endSize=16;endFill=0;html=1;rounded=0;exitX=0;exitY=0;exitDx=0;exitDy=0;entryX=0.994;entryY=0.978;entryDx=0;entryDy=0;entryPerimeter=0;" edge="1" parent="WIyWlLk6GJQsqaUBKTNV-1" source="dhHFdAmfuzsWMo1l0_3k-3" target="5jMMAeLaqf-RPU7la-JJ-0">
          <mxGeometry width="160" relative="1" as="geometry">
            <mxPoint x="240" y="50" as="sourcePoint" />
            <mxPoint x="80" y="80" as="targetPoint" />
          </mxGeometry>
        </mxCell>
        <mxCell id="dhHFdAmfuzsWMo1l0_3k-13" value="" style="endArrow=block;dashed=1;endFill=0;endSize=12;html=1;rounded=0;exitX=1;exitY=0;exitDx=0;exitDy=0;entryX=0.011;entryY=1.022;entryDx=0;entryDy=0;entryPerimeter=0;" edge="1" parent="WIyWlLk6GJQsqaUBKTNV-1" source="dhHFdAmfuzsWMo1l0_3k-3" target="dhHFdAmfuzsWMo1l0_3k-10">
          <mxGeometry width="160" relative="1" as="geometry">
            <mxPoint x="130" y="50" as="sourcePoint" />
            <mxPoint x="198" y="-69" as="targetPoint" />
          </mxGeometry>
        </mxCell>
        <mxCell id="dhHFdAmfuzsWMo1l0_3k-14" value="&lt;i&gt;Event&lt;/i&gt;" style="html=1;whiteSpace=wrap;" vertex="1" parent="WIyWlLk6GJQsqaUBKTNV-1">
          <mxGeometry x="-230" y="240" width="110" height="20" as="geometry" />
        </mxCell>
        <mxCell id="dhHFdAmfuzsWMo1l0_3k-15" value="BuildingSwitchedEvent" style="swimlane;fontStyle=0;childLayout=stackLayout;horizontal=1;startSize=26;fillColor=none;horizontalStack=0;resizeParent=1;resizeParentMax=0;resizeLast=0;collapsible=1;marginBottom=0;whiteSpace=wrap;html=1;" vertex="1" parent="WIyWlLk6GJQsqaUBKTNV-1">
          <mxGeometry x="-120" y="350" width="190" height="70" as="geometry" />
        </mxCell>
        <mxCell id="dhHFdAmfuzsWMo1l0_3k-16" value="+ buildingType : BuildingTypeSO" style="text;strokeColor=none;fillColor=none;align=left;verticalAlign=top;spacingLeft=4;spacingRight=4;overflow=hidden;rotatable=0;points=[[0,0.5],[1,0.5]];portConstraint=eastwest;whiteSpace=wrap;html=1;" vertex="1" parent="dhHFdAmfuzsWMo1l0_3k-15">
          <mxGeometry y="26" width="190" height="44" as="geometry" />
        </mxCell>
        <mxCell id="dhHFdAmfuzsWMo1l0_3k-19" value="" style="endArrow=block;endSize=16;endFill=0;html=1;rounded=0;exitX=0;exitY=0;exitDx=0;exitDy=0;entryX=1;entryY=1;entryDx=0;entryDy=0;" edge="1" parent="WIyWlLk6GJQsqaUBKTNV-1" source="dhHFdAmfuzsWMo1l0_3k-15" target="dhHFdAmfuzsWMo1l0_3k-14">
          <mxGeometry width="160" relative="1" as="geometry">
            <mxPoint x="30" y="40" as="sourcePoint" />
            <mxPoint x="-11" y="-36" as="targetPoint" />
          </mxGeometry>
        </mxCell>
        <mxCell id="dhHFdAmfuzsWMo1l0_3k-20" value="EnemyKilledEvent&amp;nbsp;" style="swimlane;fontStyle=0;childLayout=stackLayout;horizontal=1;startSize=26;fillColor=none;horizontalStack=0;resizeParent=1;resizeParentMax=0;resizeLast=0;collapsible=1;marginBottom=0;whiteSpace=wrap;html=1;" vertex="1" parent="WIyWlLk6GJQsqaUBKTNV-1">
          <mxGeometry x="-370" y="350" width="140" height="70" as="geometry" />
        </mxCell>
        <mxCell id="dhHFdAmfuzsWMo1l0_3k-21" value="+enemy : Enemy" style="text;strokeColor=none;fillColor=none;align=left;verticalAlign=top;spacingLeft=4;spacingRight=4;overflow=hidden;rotatable=0;points=[[0,0.5],[1,0.5]];portConstraint=eastwest;whiteSpace=wrap;html=1;" vertex="1" parent="dhHFdAmfuzsWMo1l0_3k-20">
          <mxGeometry y="26" width="140" height="44" as="geometry" />
        </mxCell>
        <mxCell id="dhHFdAmfuzsWMo1l0_3k-22" value="" style="endArrow=block;endSize=16;endFill=0;html=1;rounded=0;exitX=1;exitY=0;exitDx=0;exitDy=0;entryX=0;entryY=0.75;entryDx=0;entryDy=0;" edge="1" parent="WIyWlLk6GJQsqaUBKTNV-1" source="dhHFdAmfuzsWMo1l0_3k-20" target="dhHFdAmfuzsWMo1l0_3k-14">
          <mxGeometry width="160" relative="1" as="geometry">
            <mxPoint x="-130" y="380" as="sourcePoint" />
            <mxPoint x="-189" y="280" as="targetPoint" />
          </mxGeometry>
        </mxCell>
        <mxCell id="dhHFdAmfuzsWMo1l0_3k-32" value="" style="group" vertex="1" connectable="0" parent="WIyWlLk6GJQsqaUBKTNV-1">
          <mxGeometry x="120" y="320" width="210" height="96" as="geometry" />
        </mxCell>
        <mxCell id="dhHFdAmfuzsWMo1l0_3k-27" value="EventBus&amp;lt;T&amp;gt;" style="swimlane;fontStyle=1;align=center;verticalAlign=top;childLayout=stackLayout;horizontal=1;startSize=26;horizontalStack=0;resizeParent=1;resizeParentMax=0;resizeLast=0;collapsible=1;marginBottom=0;whiteSpace=wrap;html=1;" vertex="1" parent="dhHFdAmfuzsWMo1l0_3k-32">
          <mxGeometry y="10" width="190" height="86" as="geometry" />
        </mxCell>
        <mxCell id="dhHFdAmfuzsWMo1l0_3k-28" value="&lt;u&gt;+ OnEvent: event Action&amp;lt;T&amp;gt;&lt;/u&gt;" style="text;strokeColor=none;fillColor=none;align=left;verticalAlign=top;spacingLeft=4;spacingRight=4;overflow=hidden;rotatable=0;points=[[0,0.5],[1,0.5]];portConstraint=eastwest;whiteSpace=wrap;html=1;" vertex="1" parent="dhHFdAmfuzsWMo1l0_3k-27">
          <mxGeometry y="26" width="190" height="26" as="geometry" />
        </mxCell>
        <mxCell id="dhHFdAmfuzsWMo1l0_3k-29" value="" style="line;strokeWidth=1;fillColor=none;align=left;verticalAlign=middle;spacingTop=-1;spacingLeft=3;spacingRight=3;rotatable=0;labelPosition=right;points=[];portConstraint=eastwest;strokeColor=inherit;" vertex="1" parent="dhHFdAmfuzsWMo1l0_3k-27">
          <mxGeometry y="52" width="190" height="8" as="geometry" />
        </mxCell>
        <mxCell id="dhHFdAmfuzsWMo1l0_3k-30" value="&lt;u&gt;+ Publish (pEvent: T)&lt;/u&gt;" style="text;strokeColor=none;fillColor=none;align=left;verticalAlign=top;spacingLeft=4;spacingRight=4;overflow=hidden;rotatable=0;points=[[0,0.5],[1,0.5]];portConstraint=eastwest;whiteSpace=wrap;html=1;" vertex="1" parent="dhHFdAmfuzsWMo1l0_3k-27">
          <mxGeometry y="60" width="190" height="26" as="geometry" />
        </mxCell>
        <mxCell id="dhHFdAmfuzsWMo1l0_3k-31" value="T: Event" style="rounded=0;whiteSpace=wrap;html=1;dashed=1;" vertex="1" parent="dhHFdAmfuzsWMo1l0_3k-32">
          <mxGeometry x="160" width="50" height="20" as="geometry" />
        </mxCell>
        <mxCell id="dhHFdAmfuzsWMo1l0_3k-37" value="Spawner" style="swimlane;fontStyle=1;align=center;verticalAlign=top;childLayout=stackLayout;horizontal=1;startSize=26;horizontalStack=0;resizeParent=1;resizeParentMax=0;resizeLast=0;collapsible=1;marginBottom=0;whiteSpace=wrap;html=1;" vertex="1" parent="WIyWlLk6GJQsqaUBKTNV-1">
          <mxGeometry x="-570" y="40" width="240" height="60" as="geometry" />
        </mxCell>
        <mxCell id="dhHFdAmfuzsWMo1l0_3k-39" value="" style="line;strokeWidth=1;fillColor=none;align=left;verticalAlign=middle;spacingTop=-1;spacingLeft=3;spacingRight=3;rotatable=0;labelPosition=right;points=[];portConstraint=eastwest;strokeColor=inherit;" vertex="1" parent="dhHFdAmfuzsWMo1l0_3k-37">
          <mxGeometry y="26" width="240" height="8" as="geometry" />
        </mxCell>
        <mxCell id="dhHFdAmfuzsWMo1l0_3k-40" value="+ Spawn(toSpawn: EnemySO)" style="text;strokeColor=none;fillColor=none;align=left;verticalAlign=top;spacingLeft=4;spacingRight=4;overflow=hidden;rotatable=0;points=[[0,0.5],[1,0.5]];portConstraint=eastwest;whiteSpace=wrap;html=1;" vertex="1" parent="dhHFdAmfuzsWMo1l0_3k-37">
          <mxGeometry y="34" width="240" height="26" as="geometry" />
        </mxCell>
      </root>
    </mxGraphModel>
  </diagram>
</mxfile>
